# xmcd
#
# Track frame offsets: 
#        150
#        11942
#        25870
#        40660
#        55410
#        70355
#        84305
#        98629
#        112726
#        126936
#        140915
#        156755
#        169754
#        182974
#        195855
#        211819
#        226626
#        241429
#        255626
#        268935
#        281566
#        295582
#        310624
#
# Disc length: 4326 seconds
#
# Revision: 0
# Processed by: cddbd v1.5.2PL0 Copyright (c) Steve Scherf et al.
# Submitted via: ExactAudioCopy v0.99pb5
#
DISCID=3e10e417
DTITLE=Various Artist - The Return Of The Stuff That Dreams Are Made Of CD1
DYEAR=2012
DGENRE=Blues
TTITLE0=Alex Hood and His Railroad Boys - L And N Rag
TTITLE1=Hambone Willie Newbern - Roll and Tumble Blues
TTITLE2=Appalachia Vagabond (Hayes Shepherd) - Hard For To Love
TTITLE3=Washington (Bukka) White - The Panama Limited
TTITLE4=Earl Johnson and His Dixie Entertainers - John Henry Blues
TTITLE5=Geeshie Wiley - Last Kind Words Blues
TTITLE6=Carter Brothers and Son - Old Jaw Bone
TTITLE7=B. F. Shelton - Oh Molly Dear
TTITLE8=Charley Patton - High Water Everywhere Pt. 1
TTITLE9=Ernest Stoneman and Kahle Brewer - Lonesome Road Blues
TTITLE10=Ishman Bracey - Woman Woman Blues
TTITLE11=Fiddling Powers and Family - Old Molly Hair
TTITLE12=Ashley's Melody Men - Bath House Blues
TTITLE13=Dennis McGee and Sady Courville - Mon Chere Bebe Creole
TTITLE14=Willie Walker - Dupree Blues
TTITLE15=Packie Dolan and His Boys - Irish Girl  - Blue Breeches
TTITLE16=Cartwright Brothers - Texas Ranger
TTITLE17=L. O. Birkhead and A. E. Ward - Robinson County
TTITLE18=Robert Wilkins - That's No Way To Get Along
TTITLE19=Lewis Brothers - Bull At The Wagon
TTITLE20=Karola Stocha and S. Bachleda - Koscieliska
TTITLE21=Fruit Jar Guzzlers - Stack-O-Lee
TTITLE22=Uncle Dave Macon and His Fruit Jar Drinkers - Sail Away Ladies
EXTD=
EXTT0=
EXTT1=
EXTT2=
EXTT3=
EXTT4=
EXTT5=
EXTT6=
EXTT7=
EXTT8=
EXTT9=
EXTT10=
EXTT11=
EXTT12=
EXTT13=
EXTT14=
EXTT15=
EXTT16=
EXTT17=
EXTT18=
EXTT19=
EXTT20=
EXTT21=
EXTT22=
PLAYORDER=
